<svg width="18" height="11" viewBox="0 0 18 11" fill="none" xmlns="http://www.w3.org/2000/svg">
<path d="M7.96529 10.16C8.52027 10.16 8.98697 9.73746 8.98697 8.96805V5.33542C9.06895 5.63814 9.29599 5.89671 9.67439 6.11744L16.1387 9.91404C16.4099 10.078 16.6495 10.16 16.927 10.16C17.482 10.16 17.9487 9.73746 17.9487 8.96805V1.19196C17.9487 0.422545 17.482 0 16.927 0C16.6495 0 16.4099 0.0819863 16.1387 0.245959L9.67439 4.04256C9.29599 4.26329 9.06895 4.51556 8.98697 4.81827V1.19196C8.98697 0.422545 8.52658 0 7.9716 0C7.6878 0 7.45445 0.0819863 7.17696 0.245959L0.712651 4.04256C0.233346 4.32636 0 4.64799 0 5.07685C0 5.49939 0.239652 5.83995 0.712651 6.11744L7.17696 9.91404C7.44814 10.078 7.6878 10.16 7.96529 10.16ZM7.5932 8.69686C7.55536 8.69686 7.51121 8.68425 7.45445 8.65271L1.66495 5.23451C1.58927 5.19037 1.55143 5.15253 1.55143 5.07685C1.55143 5.00117 1.58927 4.96963 1.66495 4.92549L7.45445 1.50729C7.51121 1.47575 7.55536 1.45683 7.5932 1.45683C7.67518 1.45683 7.73825 1.51359 7.73825 1.62081V8.53919C7.73825 8.64641 7.67518 8.69686 7.5932 8.69686ZM16.5549 8.69686C16.5108 8.69686 16.4666 8.68425 16.4162 8.65271L10.6204 5.23451C10.551 5.19037 10.5069 5.15253 10.5069 5.07685C10.5069 5.00117 10.5447 4.96963 10.6204 4.92549L16.4162 1.50729C16.4729 1.47575 16.5108 1.45683 16.5486 1.45683C16.6306 1.45683 16.7 1.51359 16.7 1.62081V8.53919C16.7 8.64641 16.6306 8.69686 16.5549 8.69686Z" fill="#1C1C1E"/>
</svg>
