<svg width="14" height="14" viewBox="0 0 14 14" fill="none" xmlns="http://www.w3.org/2000/svg">
<path d="M7.62612 0.63864C7.62612 0.294275 7.33184 0 6.98748 0C6.64311 0 6.3551 0.294275 6.3551 0.63864V1.90966C6.3551 2.25402 6.64311 2.54204 6.98748 2.54204C7.33184 2.54204 7.62612 2.25402 7.62612 1.90966V0.63864ZM10.1306 2.9678C9.88641 3.21199 9.8864 3.61896 10.1369 3.86315C10.3748 4.10733 10.788 4.10733 11.0322 3.85689L11.9338 2.95528C12.178 2.71735 12.178 2.29785 11.9338 2.05367C11.6896 1.81574 11.2826 1.81574 11.0385 2.05993L10.1306 2.9678ZM2.94275 3.85689C3.18068 4.10733 3.59392 4.10733 3.8381 3.86315C4.08229 3.62522 4.08229 3.20572 3.84437 2.9678L2.94275 2.05993C2.70483 1.822 2.29159 1.81574 2.04741 2.05367C1.80322 2.29785 1.80322 2.71735 2.04115 2.94902L2.94275 3.85689ZM6.98748 3.70036C5.18426 3.70036 3.68784 5.19052 3.68784 7C3.68784 8.80948 5.18426 10.2996 6.98748 10.2996C8.7907 10.2996 10.2809 8.80948 10.2809 7C10.2809 5.19052 8.7907 3.70036 6.98748 3.70036ZM6.98748 4.88372C8.13954 4.88372 9.10376 5.84168 9.10376 7C9.10376 8.15832 8.13954 9.11628 6.98748 9.11628C5.82916 9.11628 4.86494 8.15832 4.86494 7C4.86494 5.84168 5.82916 4.88372 6.98748 4.88372ZM13.3426 7.63864C13.6869 7.63864 13.975 7.34437 13.975 7C13.975 6.65563 13.6869 6.36762 13.3426 6.36762H12.0716C11.7272 6.36762 11.4392 6.65563 11.4392 7C11.4392 7.34437 11.7272 7.63864 12.0716 7.63864H13.3426ZM0.63864 6.36762C0.288014 6.36762 0 6.65563 0 7C0 7.34437 0.288014 7.63864 0.63864 7.63864H1.9034C2.24776 7.63864 2.54204 7.34437 2.54204 7C2.54204 6.65563 2.24776 6.36762 1.9034 6.36762H0.63864ZM11.0259 10.1431C10.7818 9.89893 10.3748 9.90519 10.1306 10.1494C9.88641 10.3873 9.8864 10.7943 10.1369 11.0447L11.0447 11.9463C11.2826 12.1905 11.6959 12.1843 11.9401 11.9401C12.178 11.6959 12.178 11.2889 11.9338 11.0447L11.0259 10.1431ZM2.04115 11.0385C1.79696 11.2826 1.7907 11.6959 2.02862 11.9338C2.27281 12.178 2.69231 12.1843 2.93023 11.9463L3.8381 11.0447C4.08229 10.8005 4.08229 10.3873 3.84437 10.1494C3.60018 9.90519 3.18694 9.90519 2.94275 10.1431L2.04115 11.0385ZM7.62612 12.0903C7.62612 11.746 7.33184 11.458 6.98748 11.458C6.64311 11.458 6.3551 11.746 6.3551 12.0903V13.3614C6.3551 13.7057 6.64311 14 6.98748 14C7.33184 14 7.62612 13.7057 7.62612 13.3614V12.0903Z" fill="#1C1C1E"/>
</svg>
