<svg width="15" height="15" viewBox="0 0 15 15" fill="none" xmlns="http://www.w3.org/2000/svg">
<path d="M4.31887 5.74301V9.02473H2.87925C1.29256 9.02473 0 10.2786 0 11.873C0 13.4674 1.28482 14.76 2.87925 14.76C4.45819 14.76 5.75075 13.4674 5.75075 11.873V10.4489H9.00925V11.873C9.00925 13.4674 10.3018 14.76 11.8808 14.76C13.4752 14.76 14.76 13.4674 14.76 11.873C14.76 10.2786 13.4674 9.02473 11.8808 9.02473H10.4411V5.74301H11.8808C13.4674 5.73527 14.76 4.48141 14.76 2.88698C14.76 1.3003 13.4752 0 11.8808 0C10.3018 0 9.00925 1.3003 9.00925 2.88698V4.31887H5.75075V2.88698C5.75075 1.3003 4.45819 0 2.87925 0C1.28482 0 0 1.3003 0 2.88698C0 4.48141 1.29256 5.73527 2.87925 5.74301H4.31887ZM2.90246 4.33435C2.09751 4.33435 1.44736 3.6842 1.44736 2.88698C1.44736 2.09751 2.09751 1.44736 2.87925 1.44736C3.66098 1.44736 4.31113 2.09751 4.31113 2.9102V4.33435H2.90246ZM11.8653 4.33435H10.4489V2.9102C10.4489 2.09751 11.099 1.44736 11.8808 1.44736C12.6702 1.44736 13.3126 2.09751 13.3126 2.88698C13.3126 3.6842 12.6625 4.33435 11.8653 4.33435ZM5.75849 9.03247V5.72753H9.00925V9.03247H5.75849ZM2.90246 10.4257H4.31113V11.8498C4.31113 12.6547 3.66098 13.3049 2.87925 13.3049C2.09751 13.3049 1.44736 12.6625 1.44736 11.8653C1.44736 11.0758 2.09751 10.4257 2.90246 10.4257ZM11.8653 10.4257C12.6625 10.4257 13.3126 11.0758 13.3126 11.8653C13.3126 12.6625 12.6702 13.3049 11.8808 13.3049C11.099 13.3049 10.4489 12.6547 10.4489 11.8498V10.4257H11.8653Z" fill="#1C1C1E"/>
</svg>
