<svg width="14" height="14" viewBox="0 0 14 14" fill="none" xmlns="http://www.w3.org/2000/svg">
<path d="M6.99657 1.71485C7.46987 1.71485 7.86085 1.32386 7.86085 0.857423C7.86085 0.384125 7.46987 0 6.99657 0C6.52327 0 6.13915 0.377266 6.13915 0.857423C6.13915 1.32386 6.53699 1.71485 6.99657 1.71485ZM10.7349 3.26507C11.0642 3.59432 11.6198 3.59432 11.949 3.26507C12.292 2.92896 12.292 2.38707 11.949 2.05096C11.6061 1.70799 11.0779 1.70799 10.7349 2.05096C10.4057 2.38021 10.4057 2.93582 10.7349 3.26507ZM2.0441 3.27193C2.37335 3.60118 2.92896 3.60118 3.25821 3.27193C3.60118 2.9221 3.60118 2.40078 3.25821 2.05781C2.9221 1.71485 2.38021 1.71485 2.0441 2.05781C1.71485 2.38707 1.71485 2.93582 2.0441 3.27193ZM6.99657 10.6046C8.96521 10.6046 10.5909 8.97893 10.5909 7.01029C10.5909 5.04851 8.96521 3.42283 6.99657 3.42283C5.03479 3.42283 3.40911 5.04851 3.40911 7.01029C3.40911 8.97893 5.03479 10.6046 6.99657 10.6046ZM6.99657 9.3219C5.7413 9.3219 4.69182 8.27242 4.69182 7.01029C4.69182 5.76188 5.7413 4.70554 6.99657 4.70554C8.2587 4.70554 9.30818 5.75502 9.30818 7.01029C9.30818 8.27242 8.2587 9.3219 6.99657 9.3219ZM0.857423 7.86771C1.32386 7.86771 1.71485 7.46987 1.71485 7.01029C1.71485 6.53013 1.33758 6.14601 0.857423 6.14601C0.384125 6.14601 0 6.53699 0 7.01029C0 7.47673 0.390985 7.86771 0.857423 7.86771ZM13.1426 7.90201C13.6227 7.90201 14 7.52474 14 7.04459C14 6.58501 13.609 6.18716 13.1426 6.18716C12.6693 6.18716 12.2852 6.57815 12.2852 7.04459C12.2852 7.51788 12.6693 7.90201 13.1426 7.90201ZM2.05096 11.949C2.38707 12.292 2.92896 12.292 3.26507 11.949C3.59432 11.6198 3.59432 11.071 3.26507 10.7349C2.93582 10.4057 2.38021 10.4057 2.05096 10.7349C1.70799 11.0779 1.70799 11.6129 2.05096 11.949ZM10.7006 11.9833C11.0505 12.3195 11.5718 12.3195 11.9216 11.9833C12.2509 11.6541 12.2509 11.0985 11.9216 10.7692C11.5786 10.4331 11.0367 10.4331 10.7006 10.7692C10.3645 11.1053 10.3645 11.6472 10.7006 11.9833ZM6.99657 14C7.46987 14 7.86085 13.6159 7.86085 13.1426C7.86085 12.6761 7.46987 12.2852 6.99657 12.2852C6.53699 12.2852 6.13915 12.6761 6.13915 13.1426C6.13915 13.6227 6.52327 14 6.99657 14Z" fill="#1C1C1E"/>
</svg>
