<svg width="16" height="14" viewBox="0 0 16 14" fill="none" xmlns="http://www.w3.org/2000/svg">
<path d="M2.37127 13.43L8.57968 13.4228C9.54974 13.4228 10.2468 13.1498 10.9006 12.4384L14.9605 8.14854C15.4851 7.58087 15.6863 7.15692 15.6863 6.70422C15.6863 6.25152 15.4923 5.83476 14.9605 5.2599L10.9078 0.948507C10.2539 0.237127 9.55693 0 8.57968 0H2.37127C0.81198 0 0 0.797608 0 2.34253V11.1521C0 12.6899 0.81198 13.43 2.37127 13.43ZM2.4575 12.0001C1.79641 12.0001 1.43713 11.6551 1.43713 10.9581V2.47187C1.43713 1.77486 1.79641 1.42995 2.4575 1.42995H8.64435C9.14016 1.42995 9.4707 1.52336 9.81561 1.88983L13.8396 6.1653C14.0408 6.38805 14.1126 6.53895 14.1126 6.70422C14.1126 6.86949 14.048 7.02039 13.8396 7.24315L9.80843 11.5042C9.45633 11.8707 9.14016 12.0001 8.63716 12.0001H2.4575ZM4.16768 9.72939C4.35451 9.72939 4.51978 9.65753 4.64194 9.52819L6.52458 7.64554L8.40722 9.52819C8.52938 9.65753 8.68746 9.72939 8.88148 9.72939C9.24794 9.72939 9.53537 9.43477 9.53537 9.0683C9.53537 8.88866 9.46351 8.73776 9.34136 8.60842L7.45153 6.71859L9.34136 4.82158C9.47789 4.69224 9.54256 4.54134 9.54256 4.36888C9.54256 4.00241 9.25513 3.71499 8.88866 3.71499C8.70902 3.71499 8.56531 3.77247 8.42878 3.909L6.52458 5.79883L4.62756 3.91619C4.50541 3.78684 4.35451 3.72936 4.16768 3.72936C3.80121 3.72936 3.51379 4.0096 3.51379 4.37607C3.51379 4.54852 3.58564 4.70661 3.71499 4.82876L5.59763 6.71859L3.71499 8.61561C3.58564 8.73776 3.51379 8.89585 3.51379 9.0683C3.51379 9.43477 3.80121 9.72939 4.16768 9.72939Z" fill="#1C1C1E"/>
</svg>
