<svg width="12" height="12" viewBox="0 0 12 12" fill="none" xmlns="http://www.w3.org/2000/svg">
<path d="M9.14975 7.82344C6.05893 7.82344 4.13667 5.97129 4.13667 2.97396C4.13667 2.1326 4.27689 1.37305 4.49308 0.958211C4.5924 0.7654 4.62162 0.648545 4.62162 0.502477C4.62162 0.257081 4.41712 0 4.1133 0C4.03734 0 3.90296 0.023371 3.71599 0.093484C1.52496 0.987425 0 3.27194 0 5.74342C0 9.29582 2.58834 11.89 6.14073 11.89C8.67649 11.89 10.7682 10.5345 11.7264 8.33761C11.8082 8.15648 11.8316 8.00457 11.8316 7.91109C11.8316 7.61311 11.6037 7.42614 11.3642 7.42614C11.2415 7.42614 11.1304 7.44367 10.961 7.51962C10.5111 7.70659 9.82166 7.82344 9.14975 7.82344ZM1.14518 5.70837C1.14518 4.06071 1.96901 2.46564 3.31284 1.56001C3.15509 2.02743 3.07329 2.54744 3.07329 3.11419C3.07329 6.70748 5.28185 8.8693 8.95694 8.8693C9.44773 8.8693 9.87425 8.81087 10.2774 8.67064C9.42436 9.96773 7.86434 10.7507 6.17579 10.7507C3.2661 10.7507 1.14518 8.6239 1.14518 5.70837Z" fill="#1C1C1E"/>
</svg>
