<svg width="18" height="11" viewBox="0 0 18 11" fill="none" xmlns="http://www.w3.org/2000/svg">
<path d="M9.98344 10.16C9.42846 10.16 8.96177 9.73746 8.96177 8.96805V5.33542C8.87978 5.63814 8.65274 5.89671 8.27434 6.11744L1.81003 9.91404C1.53885 10.078 1.29919 10.16 1.0217 10.16C0.466717 10.16 2.67029e-05 9.73746 2.67029e-05 8.96805V1.19196C2.67029e-05 0.422545 0.466717 0 1.0217 0C1.29919 0 1.53885 0.0819863 1.81003 0.245959L8.27434 4.04256C8.65274 4.26329 8.87978 4.51556 8.96177 4.81827V1.19196C8.96177 0.422545 9.42215 0 9.97713 0C10.2609 0 10.4943 0.0819863 10.7718 0.245959L17.2361 4.04256C17.7154 4.32636 17.9487 4.64799 17.9487 5.07685C17.9487 5.49939 17.7091 5.83995 17.2361 6.11744L10.7718 9.91404C10.5006 10.078 10.2609 10.16 9.98344 10.16ZM10.3555 8.69686C10.3934 8.69686 10.4375 8.68425 10.4943 8.65271L16.2838 5.23451C16.3595 5.19037 16.3973 5.15253 16.3973 5.07685C16.3973 5.00117 16.3595 4.96963 16.2838 4.92549L10.4943 1.50729C10.4375 1.47575 10.3934 1.45683 10.3555 1.45683C10.2735 1.45683 10.2105 1.51359 10.2105 1.62081V8.53919C10.2105 8.64641 10.2735 8.69686 10.3555 8.69686ZM1.3938 8.69686C1.43794 8.69686 1.48209 8.68425 1.53254 8.65271L7.32834 5.23451C7.39772 5.19037 7.44186 5.15253 7.44186 5.07685C7.44186 5.00117 7.40402 4.96963 7.32834 4.92549L1.53254 1.50729C1.47578 1.47575 1.43794 1.45683 1.4001 1.45683C1.31812 1.45683 1.24874 1.51359 1.24874 1.62081V8.53919C1.24874 8.64641 1.31812 8.69686 1.3938 8.69686Z" fill="#1C1C1E"/>
</svg>
