<svg width="13" height="12" viewBox="0 0 13 12" fill="none" xmlns="http://www.w3.org/2000/svg">
<path d="M1.46219 8.6748H3.3178C3.37026 8.6748 3.42271 8.68792 3.46205 8.72726L6.34054 11.2976C6.67494 11.6057 6.94378 11.75 7.28474 11.75C7.77651 11.75 8.14369 11.3828 8.14369 10.8976V0.885184C8.14369 0.393415 7.77651 0 7.27818 0C6.94378 0 6.70773 0.150809 6.34054 0.485212L3.46205 3.03585C3.42271 3.0752 3.37026 3.08831 3.3178 3.08831H1.46219C0.491769 3.08831 0 3.59975 0 4.62263V7.14049C0 8.16992 0.498326 8.6748 1.46219 8.6748ZM1.58022 7.50112C1.36384 7.50112 1.25893 7.39621 1.25893 7.17983V4.58984C1.25893 4.36691 1.36384 4.262 1.58022 4.262H3.62598C3.80301 4.262 3.93415 4.22921 4.08496 4.09152L6.69461 1.71136C6.7274 1.68513 6.76018 1.66546 6.79953 1.66546C6.85198 1.66546 6.89132 1.69824 6.89132 1.75725V9.98619C6.89132 10.0518 6.85198 10.0845 6.80608 10.0845C6.76674 10.0845 6.73396 10.0714 6.69461 10.0386L4.08496 7.6716C3.93415 7.5339 3.80301 7.50112 3.62598 7.50112H1.58022ZM10.373 8.79939C10.655 8.97642 11.0222 8.91741 11.2254 8.62891C11.7566 7.9142 12.0713 6.91755 12.0713 5.875C12.0713 4.83245 11.7566 3.8358 11.2254 3.11454C11.0222 2.83259 10.655 2.76702 10.373 2.95717C10.0518 3.16699 9.99275 3.55385 10.2485 3.92759C10.6091 4.44559 10.8124 5.14062 10.8124 5.875C10.8124 6.60282 10.6091 7.29129 10.2485 7.81585C9.99275 8.19615 10.0518 8.58301 10.373 8.79939Z" fill="#1C1C1E"/>
</svg>
