<svg width="9" height="12" viewBox="0 0 9 12" fill="none" xmlns="http://www.w3.org/2000/svg">
<path d="M1.46219 8.6748H3.32436C3.37681 8.6748 3.42271 8.68792 3.46861 8.72726L6.34054 11.2976C6.6815 11.6057 6.94378 11.75 7.29129 11.75C7.78306 11.75 8.15025 11.3828 8.15025 10.8976V0.885184C8.15025 0.393415 7.78306 0 7.28474 0C6.94378 0 6.70773 0.150809 6.34054 0.485212L3.46861 3.03585C3.42271 3.0752 3.37681 3.08831 3.32436 3.08831H1.46219C0.498326 3.08831 0 3.59975 0 4.62263V7.14049C0 8.16992 0.498326 8.6748 1.46219 8.6748ZM1.58022 7.50112C1.36384 7.50112 1.25893 7.39621 1.25893 7.17983V4.58984C1.25893 4.36691 1.36384 4.262 1.58022 4.262H3.62598C3.80301 4.262 3.93415 4.22921 4.09152 4.09152L6.69461 1.71136C6.7274 1.68513 6.76018 1.66546 6.80608 1.66546C6.85198 1.66546 6.89132 1.69824 6.89132 1.75725V9.98619C6.89132 10.0518 6.85198 10.0845 6.80608 10.0845C6.76674 10.0845 6.73396 10.0714 6.70117 10.0386L4.09152 7.6716C3.94071 7.5339 3.80301 7.50112 3.62598 7.50112H1.58022Z" fill="#1C1C1E"/>
</svg>
