<svg width="15" height="15" viewBox="0 0 15 15" fill="none" xmlns="http://www.w3.org/2000/svg">
<path d="M7.08657 14.18C10.9725 14.18 14.18 10.971 14.18 7.09C14.18 3.20901 10.9657 0 7.07972 0C3.20061 0 0 3.20901 0 7.09C0 10.971 3.20746 14.18 7.08657 14.18ZM2.96073 2.79074C3.63924 2.13934 4.47537 1.63879 5.4006 1.35766C4.914 1.8445 4.50278 2.53704 4.19437 3.37358C3.71463 3.22273 3.29656 3.02388 2.96073 2.79074ZM8.7794 1.36452C9.70463 1.64565 10.5339 2.13934 11.2124 2.7976C10.8766 3.03074 10.4654 3.22273 9.98563 3.38044C9.67722 2.53704 9.266 1.85135 8.7794 1.36452ZM5.14702 3.61357C5.52396 2.60561 6.03798 1.86507 6.60682 1.59765V3.76442C6.08595 3.74385 5.59935 3.69585 5.14702 3.61357ZM7.56632 1.59765C8.13517 1.86507 8.65604 2.60561 9.02613 3.61357C8.58065 3.69585 8.08719 3.74385 7.56632 3.76442V1.59765ZM1.13084 6.61002C1.22679 5.45121 1.65856 4.38154 2.33021 3.50386C2.74142 3.81242 3.28285 4.07984 3.91338 4.27868C3.73519 4.98494 3.62553 5.77348 3.59126 6.61002H1.13084ZM10.5819 6.61002C10.5545 5.77348 10.438 4.98494 10.2598 4.27868C10.8903 4.07984 11.4317 3.81242 11.8429 3.50386C12.5146 4.38154 12.9464 5.45121 13.0423 6.61002H10.5819ZM7.56632 6.61002V4.72438C8.17629 4.70381 8.76569 4.63524 9.30712 4.52553C9.46476 5.16322 9.57441 5.86948 9.60183 6.61002H7.56632ZM4.57132 6.61002C4.60559 5.86948 4.70839 5.16322 4.86602 4.52553C5.41431 4.63524 5.99686 4.70381 6.60682 4.72438V6.61002H4.57132ZM1.13084 7.56998H3.59126C3.61868 8.42023 3.73519 9.21563 3.92023 9.9356C3.29656 10.1344 2.75513 10.395 2.34391 10.6967C1.66541 9.81218 1.22679 8.73565 1.13084 7.56998ZM4.57132 7.56998H6.60682V9.4899C6.00371 9.51047 5.41431 9.57904 4.87288 9.68875C4.70839 9.03735 4.60559 8.31738 4.57132 7.56998ZM7.56632 9.4899V7.56998H9.60868C9.57441 8.31738 9.46476 9.03735 9.30027 9.68875C8.75884 9.57904 8.17629 9.51047 7.56632 9.4899ZM10.2598 9.9356C10.438 9.21563 10.5545 8.42023 10.5887 7.56998H13.0423C12.9464 8.73565 12.5077 9.81218 11.8292 10.6967C11.418 10.395 10.8834 10.1344 10.2598 9.9356ZM7.56632 10.4499C8.08719 10.4704 8.56694 10.5184 9.01928 10.6007C8.64918 11.5881 8.13517 12.3218 7.56632 12.5892V10.4499ZM5.16073 10.6007C5.60621 10.5184 6.09281 10.4704 6.60682 10.4499V12.5892C6.04483 12.3218 5.53082 11.5881 5.16073 10.6007ZM2.9813 11.403C3.31712 11.1767 3.72833 10.9847 4.20123 10.8338C4.50278 11.6567 4.914 12.3355 5.38689 12.8155C4.47537 12.5412 3.65294 12.0475 2.9813 11.403ZM9.97877 10.8338C10.4517 10.9847 10.8629 11.1767 11.1987 11.403C10.5202 12.0475 9.69778 12.5412 8.78625 12.8155C9.266 12.3355 9.67036 11.6567 9.97877 10.8338Z" fill="black"/>
</svg>
