<svg width="10" height="14" viewBox="0 0 10 14" fill="none" xmlns="http://www.w3.org/2000/svg">
<path d="M4.84859 9.1641C6.28287 9.1641 7.28558 8.09157 7.28558 6.55576V2.60834C7.28558 1.07253 6.28287 0 4.84859 0C3.42067 0 2.4116 1.07253 2.4116 2.60834V6.55576C2.4116 8.09157 3.42067 9.1641 4.84859 9.1641ZM4.84859 7.99003C4.10607 7.99003 3.63645 7.41886 3.63645 6.58114V2.58296C3.63645 1.74524 4.10607 1.17407 4.84859 1.17407C5.59111 1.17407 6.06074 1.74524 6.06074 2.58296V6.58114C6.06074 7.41886 5.59111 7.99003 4.84859 7.99003ZM1.92928 14H7.76791C8.10426 14 8.3835 13.7271 8.3835 13.3971C8.3835 13.0607 8.10426 12.7942 7.76791 12.7942H5.4388V11.5059C7.9456 11.2647 9.69719 9.46872 9.69719 6.84134V5.59111C9.69719 5.25476 9.43064 4.99456 9.09429 4.99456C8.75793 4.99456 8.47869 5.25476 8.47869 5.59111V6.79692C8.47869 8.96102 7.01269 10.3826 4.84859 10.3826C2.6845 10.3826 1.2185 8.96102 1.2185 6.79692V5.59111C1.2185 5.25476 0.945603 4.99456 0.609248 4.99456C0.272892 4.99456 0 5.25476 0 5.59111V6.84134C0 9.46872 1.75159 11.2647 4.25839 11.5059V12.7942H1.92928C1.59293 12.7942 1.31369 13.0607 1.31369 13.3971C1.31369 13.7271 1.59293 14 1.92928 14Z" fill="#1C1C1E"/>
</svg>
