<svg width="18" height="11" viewBox="0 0 18 11" fill="none" xmlns="http://www.w3.org/2000/svg">
<path d="M0.5 1C0.5 0.723858 0.723858 0.5 1 0.5H8C8.27614 0.5 8.5 0.723858 8.5 1V4C8.5 4.27614 8.27614 4.5 8 4.5H1C0.723858 4.5 0.5 4.27614 0.5 4V1ZM2.5 8C2.5 7.72386 2.72386 7.5 3 7.5H9C9.27614 7.5 9.5 7.72386 9.5 8V10C9.5 10.2761 9.27614 10.5 9 10.5H3C2.72386 10.5 2.5 10.2761 2.5 10V8ZM12.5 1C12.5 0.723858 12.7239 0.5 13 0.5H17C17.2761 0.5 17.5 0.723858 17.5 1V9C17.5 9.27614 17.2761 9.5 17 9.5H13C12.7239 9.5 12.5 9.27614 12.5 9V1Z" stroke="black"/>
</svg>
