<svg width="16" height="15" viewBox="0 0 16 15" fill="none" xmlns="http://www.w3.org/2000/svg">
<path d="M4.53546 0C5.26699 0 5.85221 0.392714 6.16022 1.05494L11.1577 12.0894C11.2655 12.3204 11.4426 12.4282 11.7198 12.4282H15.0078C15.5006 12.4282 15.8934 12.8056 15.8934 13.2753C15.8934 13.7527 15.5006 14.13 15.0078 14.13H11.3117C10.534 14.13 10.0335 13.8066 9.71004 13.0905L4.68947 2.04057C4.58166 1.81726 4.39686 1.70176 4.15045 1.70176H0.885531C0.385014 1.70176 0 1.33215 0 0.85473C0 0.369613 0.385014 0 0.885531 0H4.53546ZM15.0078 0C15.5083 0 15.8857 0.361913 15.8857 0.84703C15.8857 1.32445 15.5083 1.69406 15.0078 1.69406H10.1567C9.65614 1.69406 9.27883 1.32445 9.27883 0.84703C9.27883 0.361913 9.66384 0 10.1567 0H15.0078Z" fill="#1C1C1E"/>
</svg>
