<svg width="18" height="11" viewBox="0 0 18 11" fill="none" xmlns="http://www.w3.org/2000/svg">
<path d="M12.1356 10.82C12.5399 10.82 12.8544 10.5184 12.8544 10.1205V0.699514C12.8544 0.301625 12.5399 0 12.1356 0C11.7249 0 11.4104 0.301625 11.4104 0.699514V10.1205C11.4104 10.5184 11.7249 10.82 12.1356 10.82ZM16.6215 10.82C17.0258 10.82 17.3402 10.5184 17.3402 10.1205V0.699514C17.3402 0.301625 17.0258 0 16.6215 0C16.2172 0 15.9027 0.301625 15.9027 0.699514V10.1205C15.9027 10.5184 16.2172 10.82 16.6215 10.82ZM1.03964 10.5761C1.32202 10.5761 1.56588 10.4927 1.84184 10.3323L8.41983 6.4689C8.90115 6.18652 9.15143 5.83998 9.15143 5.40358C9.15143 4.97361 8.90757 4.63989 8.41983 4.3511L1.84184 0.487734C1.55947 0.327295 1.32202 0.243867 1.03323 0.243867C0.468482 0.243867 0 0.667426 0 1.45037V9.36963C0 10.1526 0.474899 10.5761 1.03964 10.5761ZM1.41828 9.09368C1.33485 9.09368 1.27068 9.04234 1.27068 8.92682V1.89318C1.27068 1.77766 1.33485 1.72632 1.41828 1.72632C1.45679 1.72632 1.50171 1.73916 1.55947 1.77125L7.45078 5.25598C7.52779 5.29448 7.5663 5.33299 7.5663 5.41C7.5663 5.48059 7.52779 5.52552 7.45078 5.56402L1.55947 9.04875C1.50171 9.08084 1.45679 9.09368 1.41828 9.09368Z" fill="#1C1C1E"/>
</svg>
