<svg width="18" height="13" viewBox="0 0 18 13" fill="none" xmlns="http://www.w3.org/2000/svg">
<path d="M15.034 12.4836C15.3107 12.6661 15.6819 12.5843 15.8832 12.2823C16.9903 10.6217 17.657 8.55845 17.657 6.29392C17.657 4.0231 16.9777 1.96615 15.8832 0.299206C15.6819 -0.00902149 15.3107 -0.0845058 15.034 0.0979147C14.732 0.292916 14.688 0.664047 14.8956 0.997436C15.858 2.46309 16.4556 4.28101 16.4556 6.29392C16.4556 8.29426 15.858 10.1248 14.8956 11.5841C14.688 11.9175 14.732 12.2886 15.034 12.4836ZM1.40275 8.97991H3.18292C3.23325 8.97991 3.28357 8.99249 3.32131 9.03023L6.08278 11.496C6.40988 11.7917 6.66149 11.9301 6.99488 11.9301C7.46037 11.9301 7.81263 11.5778 7.81263 11.1123V1.50696C7.81263 1.03518 7.46037 0.657757 6.9823 0.657757C6.66149 0.657757 6.43504 0.802435 6.08278 1.12324L3.32131 3.57019C3.28357 3.60794 3.23325 3.62052 3.18292 3.62052H1.40275C0.471777 3.62052 0 4.11117 0 5.09246V7.50796C0 8.49555 0.478068 8.97991 1.40275 8.97991ZM12.4864 10.7789C12.7757 10.9551 13.128 10.8922 13.323 10.5965C14.147 9.4391 14.6188 7.88538 14.6188 6.28763C14.6188 4.68988 14.1533 3.12987 13.323 1.97873C13.128 1.68309 12.7757 1.61389 12.4864 1.79631C12.1844 1.98502 12.1404 2.36244 12.3606 2.69583C13.0336 3.67713 13.4173 4.95407 13.4173 6.28763C13.4173 7.6149 13.021 8.89184 12.3606 9.87943C12.1467 10.2128 12.1844 10.5839 12.4864 10.7789ZM1.51598 7.85393C1.3084 7.85393 1.20775 7.75328 1.20775 7.5457V5.06101C1.20775 4.84714 1.3084 4.74649 1.51598 4.74649H3.47857C3.64841 4.74649 3.77422 4.71504 3.9189 4.58294L6.42246 2.29954C6.45391 2.27438 6.48536 2.25551 6.52311 2.25551C6.57343 2.25551 6.61117 2.28696 6.61117 2.34357V10.238C6.61117 10.3009 6.57343 10.3323 6.5294 10.3323C6.49165 10.3323 6.4602 10.3198 6.42246 10.2883L3.9189 8.01748C3.77422 7.88538 3.64841 7.85393 3.47857 7.85393H1.51598ZM9.95764 9.09313C10.2281 9.26926 10.5804 9.20636 10.7754 8.92958C11.2849 8.25022 11.5868 7.2878 11.5868 6.28763C11.5868 5.28746 11.2849 4.33133 10.7754 3.64568C10.5804 3.3689 10.2281 3.306 9.95764 3.48842C9.64942 3.68971 9.58651 4.06084 9.83813 4.42568C10.1841 4.92262 10.3791 5.5894 10.3791 6.28763C10.3791 6.98586 10.1778 7.64635 9.83813 8.14958C9.5928 8.51442 9.64942 8.88555 9.95764 9.09313Z" fill="#1C1C1E"/>
</svg>
