<svg width="19" height="19" viewBox="0 0 19 19" fill="none" xmlns="http://www.w3.org/2000/svg">
<path d="M7.33784 2.25964L1.03784 3.20464C0.83204 3.23572 0.68 3.41212 0.68 3.62002V8.66002C0.68 8.89228 0.86816 9.08002 1.1 9.08002H7.4C7.63184 9.08002 7.82 8.89228 7.82 8.66002V2.67502C7.82 2.5528 7.76666 2.43688 7.67384 2.35666C7.58144 2.27728 7.45838 2.24284 7.33784 2.25964ZM18.1738 0.78166C18.0814 0.70228 17.9588 0.66784 17.8374 0.68464L9.01742 2.00764C8.81204 2.03872 8.66 2.21512 8.66 2.42302V8.66002C8.66 8.89228 8.84816 9.08002 9.08 9.08002H17.9C18.1318 9.08002 18.32 8.89228 18.32 8.66002V1.10002C18.32 0.9778 18.2667 0.86188 18.1738 0.78166ZM7.4 9.92002H1.1C0.86816 9.92002 0.68 10.1078 0.68 10.34V15.38C0.68 15.5879 0.83204 15.7643 1.03784 15.7954L7.33784 16.7404C7.35884 16.7433 7.37942 16.745 7.4 16.745C7.49996 16.745 7.5974 16.7093 7.67384 16.6434C7.76666 16.5632 7.82 16.4472 7.82 16.325V10.34C7.82 10.1078 7.63184 9.92002 7.4 9.92002ZM17.9 9.92002H9.08C8.84816 9.92002 8.66 10.1078 8.66 10.34V16.577C8.66 16.7849 8.81204 16.9613 9.01784 16.9924L17.8378 18.3154C17.8584 18.3183 17.8794 18.32 17.9 18.32C18 18.32 18.0974 18.2843 18.1738 18.2184C18.2667 18.1382 18.32 18.0222 18.32 17.9V10.34C18.32 10.1078 18.1318 9.92002 17.9 9.92002Z" fill="black"/>
</svg>
